<svg width="48" height="48" viewBox="0 0 48 48" fill="none" xmlns="http://www.w3.org/2000/svg">
<circle cx="24" cy="24" r="20" transform="rotate(90 24 24)" fill="#00B8F5"/>
<path fill-rule="evenodd" clip-rule="evenodd" d="M13.3686 22.4141C12.5485 22.4141 11.8836 23.079 11.8836 23.8992C11.8836 24.7194 12.5485 25.3843 13.3686 25.3843L30.8458 25.3843L23.8615 32.3686C23.2815 32.9486 23.2815 33.8889 23.8615 34.4688C24.4415 35.0488 25.3818 35.0488 25.9617 34.4688L35.4812 24.9494C36.0611 24.3694 36.0611 23.4291 35.4812 22.8492L25.9617 13.3297C25.3818 12.7498 24.4415 12.7498 23.8615 13.3297C23.2815 13.9097 23.2815 14.85 23.8615 15.43L30.8457 22.4141L13.3686 22.4141Z" fill="white"/>
</svg>
